<svg width="128" height="29" viewBox="0 0 128 29" fill="none" xmlns="http://www.w3.org/2000/svg">
<rect width="29" height="29" rx="7.07461" fill="white"/>
<path d="M47.0014 7.629H44.5619C44.4592 7.629 44.3736 7.74083 44.3564 7.84406L43.0211 14.1239C43.2009 14.7347 43.3806 15.3626 43.4149 15.5175C43.432 15.5863 43.1238 15.2422 42.6274 14.6486C42.6017 14.64 42.5845 14.6228 42.5674 14.6056L36.7639 7.77524C36.6526 7.6376 36.43 7.69782 36.3958 7.86987L33.7165 20.8252C33.6909 20.9629 33.7936 21.264 33.922 21.264H36.3615C36.4643 21.264 36.5499 21.0145 36.567 20.9199L37.9109 14.4766C37.6541 13.7454 37.3288 12.7991 37.286 12.6098C37.2346 12.3862 40.5559 16.524 42.7472 19.2682L44.1424 20.8596C44.2623 20.9973 44.4763 20.9285 44.5105 20.7564L47.2154 7.93009C47.2411 7.80105 47.1384 7.629 47.0014 7.629Z" fill="white"/>
<path d="M59.6271 7.629H51.1871C51.0844 7.629 50.9988 7.73223 50.9817 7.83546L48.3024 20.7994C48.2767 20.9371 48.3795 21.2554 48.5079 21.2554H57.0591C57.1619 21.2554 57.2475 21.0059 57.2646 20.9027L57.7696 18.5112C57.7953 18.3735 57.6926 18.2961 57.5642 18.2961H51.9832C51.8462 18.2961 51.7435 18.038 51.7777 17.9004L52.103 16.3003C51.7948 16.2143 51.5552 16.1025 51.4696 16.0767C51.2384 15.9992 55.039 15.9476 57.1019 15.939C57.1105 15.9218 57.1191 15.896 57.1276 15.8788L57.6412 13.6508C57.6669 13.5131 57.5727 13.5561 57.4358 13.5561H53.0275C52.8905 13.5561 52.7878 13.255 52.822 13.126L53.2414 11.0012C52.7963 10.8721 52.4111 10.7173 52.2999 10.6743C51.9832 10.5711 59.1991 10.5452 59.1991 10.5452L58.9252 10.5969H59.1392C59.2419 10.5969 59.3275 10.5108 59.3446 10.4162L59.8668 7.93869C59.8668 7.79245 59.764 7.629 59.6271 7.629Z" fill="white"/>
<path d="M67.7934 7.5174C65.2854 7.5174 62.94 9.29811 62.2809 12.4982L60.5604 20.8083C60.5347 20.9459 60.6374 21.247 60.7658 21.247H63.2053C63.3081 21.247 63.3937 20.9975 63.4108 20.8943L63.9501 18.391C63.9672 18.2877 64.0613 18.2791 64.1555 18.2791H67.6308C67.7677 18.2791 67.8705 18.2533 67.8362 18.391L67.3312 20.8771C67.3055 21.0147 67.4082 21.2384 67.5366 21.2384H69.9762C70.0789 21.2384 70.1645 20.9889 70.1816 20.8943L71.9278 12.5843C72.6041 9.38414 70.2843 7.5174 67.7934 7.5174ZM69.026 12.6531L68.5381 14.7349C68.521 14.8381 68.4268 14.7263 68.3327 14.7263H65.1741C64.8146 15.9134 64.4208 16.1199 64.3267 16.2575C64.1812 16.4726 64.1641 16.55 64.652 14.7521C64.652 14.7435 64.652 14.7779 64.652 14.7693L65.1227 12.6273C65.4223 11.1821 66.3468 10.4078 67.5281 10.4078C68.6494 10.4078 69.3085 11.2165 69.026 12.6531Z" fill="white"/>
<path d="M80.8555 7.629H76.6527C76.5499 7.629 76.4643 7.74083 76.4472 7.84406L73.768 20.7908C73.7423 20.9285 73.845 21.2468 73.9734 21.2468H76.413C76.5157 21.2468 76.6013 20.9973 76.6184 20.8941L77.1577 18.3907C77.1748 18.2875 77.269 18.2789 77.3631 18.2789H78.8611H79.2035C79.2891 18.2789 79.3661 18.1843 79.4004 18.2617L80.4618 20.9973C80.496 21.0747 80.5731 21.2382 80.6587 21.2382H83.1496C83.3036 21.2382 83.4064 20.9027 83.3464 20.765L82.0111 17.2896C81.9683 17.195 82.0111 17.0401 82.0967 16.9799C83.6375 16.0422 84.7417 14.4508 84.9899 12.7303C85.4436 9.80543 83.2951 7.629 80.8555 7.629ZM82.1138 12.6615C81.8485 13.926 80.6159 14.7347 79.3918 14.7347H78.3389C77.9623 15.9218 77.5429 16.2143 77.4487 16.3605C77.3289 16.5412 77.697 15.182 77.988 14.1067L78.7156 10.7001C78.7327 10.5969 78.8269 10.5797 78.921 10.5797H80.3505C81.5917 10.5883 82.3877 11.3625 82.1138 12.6615Z" fill="white"/>
<path d="M95.1419 7.43143C91.3756 7.43143 87.866 10.4939 87.2412 14.3134C86.6163 18.1501 88.7392 21.161 92.514 21.161C94.6968 21.161 96.6228 20.1545 98.0437 18.5717C98.1207 18.4856 98.1122 18.348 98.0351 18.2706L97.2562 17.5222C97.1706 17.4361 97.0336 17.4447 96.9566 17.5308C95.8524 18.7007 94.3373 19.5352 92.6681 19.5352C89.792 19.5352 88.2684 17.1437 88.8504 14.3048C89.4239 11.4402 92.146 9.02289 94.8509 9.02289C96.5201 9.02289 97.59 9.84873 98.1978 10.6746C98.2663 10.7606 98.3861 10.7864 98.4803 10.7262L99.5674 10.0552C99.6701 9.98637 99.7043 9.84873 99.6273 9.7455C98.6943 8.42071 97.008 7.43143 95.1419 7.43143Z" fill="white"/>
<path d="M113.126 7.629H111.997C111.894 7.629 111.808 7.73223 111.791 7.83546L110.045 16.0939C109.574 18.2273 107.357 19.5177 105.739 19.5177C103.642 19.5177 102.529 18.2531 102.983 16.1111L104.704 7.93009C104.729 7.79245 104.627 7.6376 104.498 7.6376H103.368C103.266 7.6376 103.18 7.74083 103.163 7.84406L101.382 16.2573C100.74 19.3198 103.043 21.1435 105.465 21.1435C107.854 21.1435 110.909 19.5263 111.586 16.2745L113.349 7.93869C113.366 7.78384 113.263 7.629 113.126 7.629Z" fill="white"/>
<path d="M125.615 7.629H116.285C116.182 7.629 116.096 7.73223 116.079 7.83546L115.84 9.04841C115.814 9.18605 115.908 9.40972 116.045 9.40972H119.614C119.751 9.40972 119.854 9.45273 119.82 9.59037L117.483 20.8596C117.457 20.9973 117.56 21.2554 117.688 21.2554H118.818C118.921 21.2554 119.007 21.0059 119.024 20.9027L121.395 9.59037C121.412 9.48714 121.506 9.40972 121.6 9.40972H125.358C125.461 9.40972 125.546 9.25487 125.563 9.16024L125.803 7.9731C125.855 7.82686 125.752 7.629 125.615 7.629Z" fill="white"/>
<path d="M18.7356 14.3393C18.7944 14.2933 18.7879 14.1948 18.801 14.1225C18.8271 14.0043 18.9121 13.9189 19.0101 13.84C19.1017 13.7678 19.2062 13.6955 19.2651 13.597C19.3239 13.4984 19.337 13.3539 19.252 13.2685C19.2062 13.2291 19.1474 13.2094 19.082 13.1963C18.7683 13.1109 18.4611 13.0386 18.1604 12.9072C17.8663 12.7758 17.5656 12.6247 17.2322 12.605C16.6635 12.5722 16.1275 12.9335 15.8138 13.413C16.1406 13.3802 16.4413 13.2094 16.755 13.1174C17.0688 13.0255 17.461 13.0255 17.6767 13.2685C17.0949 13.3276 16.6505 13.643 16.1341 13.8597C16.1864 13.886 16.2452 13.8992 16.304 13.9189C16.4936 13.9714 16.6635 13.9583 16.84 13.8794C16.9707 13.8138 17.0949 13.7349 17.2322 13.6955C17.3433 13.6627 17.5656 13.6495 17.6309 13.7743V13.7809C17.2387 13.9057 16.8727 14.1028 16.5589 14.3656C16.6962 14.4313 16.8466 14.4641 17.0034 14.4641C17.0688 14.4641 17.1407 14.451 17.1865 14.405C17.2453 14.3524 17.2322 14.2933 17.2061 14.2342C17.2714 14.221 17.3368 14.2013 17.4022 14.1882C17.4152 14.1882 17.4283 14.1816 17.4414 14.1882C17.4545 14.1948 17.4675 14.2079 17.4741 14.2276C17.5198 14.3327 17.5917 14.4247 17.6702 14.5101C17.4087 14.5626 17.1538 14.6218 16.8988 14.694C16.8662 14.7006 16.8335 14.7203 16.84 14.7531C16.84 14.7728 16.8662 14.786 16.8792 14.7926C17.2649 14.9831 17.7224 15.0093 18.1277 14.8714C18.2062 14.8451 18.2781 14.8123 18.3303 14.7466C18.3826 14.6874 18.4022 14.5889 18.35 14.5232C18.3042 14.4575 18.1996 14.4247 18.1996 14.3524L18.5461 14.3327C18.6049 14.3656 18.6833 14.3787 18.7356 14.3393Z" fill="#242424"/>
<path d="M11.7614 14.6219C12.1471 14.4511 12.1275 13.8139 11.9183 13.5183C11.7745 13.3146 11.4477 13.157 11.1993 13.2555C11.0424 13.3146 10.7548 13.6234 11.0751 13.6759C11.1078 13.6825 11.1404 13.6825 11.1731 13.6825C11.2777 13.6825 11.3562 13.7285 11.4215 13.8007C11.513 13.8927 11.5392 13.9847 11.5 14.0569C11.4607 14.1358 11.3823 14.1489 11.245 14.1226C11.1731 14.1095 11.1012 14.0832 11.0359 14.0832C10.9247 14.0766 10.8463 14.1161 10.8136 14.2277C10.8071 14.2474 10.8005 14.2606 10.8005 14.2803C10.7875 14.3394 10.7809 14.4051 10.7875 14.4642C10.794 14.5431 10.8267 14.6219 10.8594 14.6941C11.0555 15.0489 11.3365 15.3051 11.7157 15.4562C11.768 15.4759 11.8202 15.489 11.8725 15.4956C11.9314 15.5021 11.9902 15.489 12.0229 15.4299L11.8856 15.1277C11.8268 15.0751 11.7614 15.0357 11.7091 14.9832C11.683 14.9569 11.6568 14.9306 11.6438 14.9044C11.5915 14.7927 11.598 14.6941 11.7614 14.6219Z" fill="#242424"/>
<path d="M19.8077 14.0634C20.1934 13.8269 20.3568 13.3342 20.3307 12.8809C20.3111 12.6379 20.2522 12.408 20.1672 12.1781C20.0888 11.9613 19.9842 11.7511 19.8862 11.5408C19.8796 11.5211 19.8666 11.5014 19.8535 11.4817C19.8404 11.4686 19.8273 11.462 19.8143 11.4554C19.7554 11.4357 19.6705 11.4686 19.6182 11.4883C19.6116 11.4883 19.5005 11.5343 19.5071 11.5474C19.6182 11.8824 19.7293 12.2109 19.8339 12.5459C19.9123 12.7824 19.9908 13.0386 19.9058 13.2685C19.8404 13.4393 19.7032 13.5707 19.6116 13.7284C19.3502 14.1751 19.5332 14.7466 19.7881 15.1933C20.0431 15.64 20.3764 16.0801 20.4156 16.5925C20.4222 16.6845 20.4156 16.7896 20.3437 16.8487C20.2849 16.8947 20.2065 16.9012 20.128 16.9012C19.7685 16.9078 19.4155 16.9078 19.056 16.9144C18.9645 16.9144 18.8599 16.9144 18.7946 16.8487C18.6965 16.7502 18.6181 16.5794 18.7031 16.4742C18.788 16.3626 18.9057 16.2706 18.9384 16.1392C18.8403 16.2837 18.6769 16.3691 18.5462 16.4874C18.4155 16.6056 18.4416 16.783 18.5004 16.9472C18.5658 17.1443 18.8076 17.1969 19.0103 17.2428C19.2129 17.2888 19.4482 17.4268 19.4221 17.6304C18.2717 17.6567 17.1801 18.4384 16.7813 19.5223C16.7617 19.1873 16.8467 18.5829 16.8924 18.2479C16.899 18.1888 16.8859 18.1428 16.8663 18.0968L15.3825 17.1049C14.6112 16.6122 13.8922 16.0275 13.2516 15.3641C13.3104 16.1261 13.0686 16.875 12.8921 17.6173C12.7156 18.3596 12.611 19.1742 12.9313 19.8639C13.1862 20.4157 13.6765 20.8099 14.1732 21.1515C14.8792 21.631 15.6309 22.0383 16.4218 22.3667C17.1474 22.6624 17.9318 22.8791 18.7357 22.8923C19.592 22.912 20.0038 22.2551 20.0038 22.2551C20.1411 21.8018 20.1607 21.3091 20.0692 20.8493C20.0496 20.7376 19.5855 19.5223 19.5136 19.5946C19.762 19.3712 19.8404 18.9837 19.7032 18.6815C20.0692 18.3464 20.2261 17.8078 20.1084 17.3217C20.3764 17.2034 20.6771 17.0458 20.7555 16.7633C20.8274 16.5005 20.6706 16.2312 20.5333 15.9947C20.1934 15.3969 19.945 14.74 19.8077 14.0634Z" fill="#242424"/>
<path d="M23.5205 10.2403C23.1283 10.7067 22.4943 10.9563 21.8929 10.8709C22.2917 10.8906 22.6904 10.687 22.9192 10.3585C22.5531 10.641 22.0302 10.9169 21.6576 10.641C21.5465 10.5556 21.4681 10.4374 21.3896 10.3191C21.0563 9.78703 20.7164 9.24837 20.383 8.7097C21.0367 8.81481 21.5792 9.41259 21.6184 10.0761C21.6184 10.0498 21.6184 10.0235 21.6184 9.99724C21.6119 9.55711 21.4485 9.12355 21.1609 8.78853C21.5923 9.27464 21.8603 9.91842 21.8864 10.5753C21.9387 9.80017 21.906 8.99217 21.5465 8.30241C21.3439 7.95425 21.0301 7.65207 20.6641 7.48785C20.3438 7.34332 19.9516 7.32362 19.7032 7.04772C19.5986 6.92947 19.5333 6.77838 19.4548 6.64043C19.1541 6.12804 18.6181 5.79958 18.0625 5.59594C17.5069 5.3923 16.9186 5.28062 16.363 5.08355C16.363 5.08355 13.3628 3.5201 9.69578 5.65506C8.6434 6.27913 8.27081 7.7309 8.06164 8.94619C8.01589 9.19581 7.98321 9.44544 7.9113 9.6885C7.8394 9.91842 7.72828 10.1286 7.64331 10.352C7.13346 11.7052 7.63677 13.2095 8.15969 14.5628C8.68261 15.916 9.23168 17.3875 8.80681 18.7736C9.30358 18.2218 9.25129 17.3875 9.21207 16.6452C9.17285 15.9029 9.25129 15.0292 9.86573 14.6219C9.93109 15.2657 10.7678 15.5153 11.0619 16.0868C11.1207 16.1985 11.1534 16.3167 11.2319 16.4153C11.4476 16.6715 11.8528 16.5926 12.1078 16.3627C11.9705 16.4415 11.7613 16.4284 11.6241 16.3299C11.4214 16.1985 11.3103 15.9686 11.173 15.7715C10.8135 15.2788 10.2122 14.9635 10.1141 14.2869C10.0749 14.0307 10.1403 13.7679 10.2514 13.538C10.7874 12.441 11.9509 12.6709 12.4542 13.3541C12.4607 13.3672 12.4673 13.3738 12.4738 13.3869C12.4999 13.4198 12.5196 13.4526 12.5392 13.492C12.5915 13.584 12.6307 13.6891 12.6568 13.7942C12.6634 13.8139 12.6699 13.8402 12.6699 13.8599C12.6764 13.8862 12.683 13.919 12.683 13.9518C12.683 13.9453 12.683 13.9453 12.683 13.9387C12.7222 14.1949 12.7157 14.4314 12.7157 14.4314L12.8791 14.3854C12.9314 14.3723 12.9837 14.3591 13.0359 14.346L13.0882 14.3329C13.1536 14.3131 13.2124 14.3 13.2778 14.2803C13.2778 13.6759 13.6961 13.1373 14.206 12.822C14.8858 12.4015 15.7551 12.2504 16.5003 11.9877L17.3958 10.549C17.5331 10.3257 17.3893 10.0235 17.1278 9.99724C16.1539 9.90528 15.1669 9.91185 14.2125 9.66222C13.9837 9.6031 14.1145 9.25494 14.3432 9.31406C15.4087 9.58996 16.5134 9.55055 17.5919 9.68193C18.3632 9.88557 19.0299 10.4374 19.7032 10.8447C20.3634 11.2454 21.2981 11.7972 22.089 11.541C22.1217 11.5278 22.1479 11.5081 22.1675 11.4884C22.4355 11.449 22.6904 11.3308 22.8538 11.1074C22.5531 11.2979 22.1479 11.2979 21.8472 11.1009C22.5139 11.1797 23.1937 10.825 23.5205 10.2403Z" fill="#242424"/>
</svg>
